<svg width="65" height="65" viewBox="0 0 65 65" fill="none" xmlns="http://www.w3.org/2000/svg">
<rect width="65" height="65" rx="15" fill="url(#paint0_linear)"/>
<path d="M19.7833 16.9712H16.8366C16.0572 16.9712 15.6676 17.4016 15.6676 18.2619V21.2088C15.6676 22.0532 16.0572 22.4752 16.8366 22.4752H19.7833V16.9712ZM14.9368 30.3659V27.6382H18.6385C19.4017 27.6382 19.7833 27.1672 19.7833 26.2257V25.1541H16.7394C14.0926 25.1541 12.7695 23.7987 12.7695 21.087V18.1645C12.7695 15.3882 14.0926 14 16.7394 14H22.6813V26.104C22.6813 28.945 21.4231 30.3659 18.9066 30.3659H14.9368Z" fill="#D9E2ED"/>
<path d="M26.9115 30.3659V27.6382H30.2971C31.0603 27.6382 31.4418 27.1672 31.4418 26.2257V25.1541H28.5681C25.9214 25.1541 24.5983 23.7987 24.5983 21.087V14H27.4964V21.2088C27.4964 22.0532 27.886 22.4752 28.6654 22.4752H31.4418V14H34.3399V26.104C34.3399 28.945 33.0817 30.3659 30.5652 30.3659H26.9115Z" fill="#D9E2ED"/>
<path d="M49.9199 26.4936V18.2619C49.9199 17.4016 49.5789 16.9712 48.8974 16.9712H47.1192C46.3884 16.9712 46.0237 17.4016 46.0237 18.2619V26.4936H43.1737V18.2619C43.1737 17.4016 42.8332 16.9712 42.1511 16.9712H40.4465C39.6827 16.9712 39.3018 17.4095 39.3018 18.2863V26.4936H36.428V14H39.2045V15.3638C39.4963 14.828 39.833 14.4669 40.2152 14.28C40.5961 14.0936 41.128 14 41.8101 14H42.9548C44.1725 14 45.0005 14.487 45.4388 15.4612C45.7313 14.8931 46.1409 14.5076 46.669 14.3044C47.1965 14.1016 47.8013 14 48.4834 14H49.6768C51.7381 14 52.7693 15.3558 52.7693 18.0671V26.4936H49.9199Z" fill="#D9E2ED"/>
<path d="M12.7695 51.4634V45.4537C12.7695 42.3359 14.3464 40.7765 17.5013 40.7765H19.595C20.7185 40.7765 21.2809 40.1876 21.2809 39.0089V37.6221C21.2809 37.0238 21.145 36.5751 20.8732 36.276C20.6013 35.9769 20.1661 35.8274 19.5675 35.8274H17.6372C16.6583 35.8274 16.1688 36.3079 16.1688 37.2686V38.3291H12.9055V37.2414C12.9055 35.5737 13.3132 34.35 14.1294 33.5703C14.9449 32.7911 16.1233 32.401 17.664 32.401H19.5675C21.2896 32.401 22.5635 32.8361 23.3883 33.7063C24.2132 34.5765 24.6254 35.8817 24.6254 37.6221V39.0089C24.6254 42.1816 23.0573 43.7678 19.9211 43.7678H17.7999C16.6758 43.7678 16.114 44.3299 16.114 45.4537V48.0371H24.4352V51.4634H12.7695Z" fill="#A7CE4A"/>
<path d="M31.6829 51.4634C28.2743 51.4634 26.5709 49.7957 26.5709 46.4598V37.4046C26.5709 34.0692 28.2294 32.401 31.547 32.401H37.9104V35.8274H31.547C30.4771 35.8274 29.9427 36.3534 29.9427 37.4046V46.4327C29.9427 47.5026 30.4864 48.0371 31.5744 48.0371H35.1907V43.1967H32.1724V40.2598H38.2908V51.4634H31.6829Z" fill="#D9E2ED"/>
<path d="M49.3995 37.1598C49.3995 36.2718 48.9643 35.8274 48.0945 35.8274H45.0488C44.1784 35.8274 43.7431 36.2718 43.7431 37.1598V46.7046C43.7431 47.5931 44.1784 48.0371 45.0488 48.0371H48.0945C48.9643 48.0371 49.3995 47.5931 49.3995 46.7046V37.1598ZM45.0488 51.4634C43.4352 51.4634 42.2517 51.0377 41.4998 50.1854C40.7472 49.3334 40.3713 48.1824 40.3713 46.7318V37.1598C40.3713 35.6914 40.7472 34.5314 41.4998 33.6791C42.2517 32.8272 43.4352 32.401 45.0488 32.401H48.0945C49.7075 32.401 50.886 32.8272 51.6292 33.6791C52.3724 34.5314 52.7446 35.6914 52.7446 37.1598V46.7318C52.7446 48.1824 52.3724 49.3334 51.6292 50.1854C50.886 51.0377 49.7075 51.4634 48.0945 51.4634H45.0488Z" fill="#D9E2ED"/>
<defs>
<linearGradient id="paint0_linear" x1="32.5" y1="0" x2="32.5" y2="65" gradientUnits="userSpaceOnUse">
<stop stop-color="#555555"/>
<stop offset="1" stop-color="#333333"/>
</linearGradient>
</defs>
</svg>
