<svg width="90" height="25" viewBox="0 0 90 25" fill="none" xmlns="http://www.w3.org/2000/svg">
<path d="M4.42658 19.6083C0.920755 19.6083 -0.50242 17.8926 0.156744 14.4615L1.94542 5.14664C2.60428 1.7159 4.63993 0 8.0523 0H14.5979L13.921 3.52463H7.37549C6.275 3.52463 5.62147 4.06527 5.41387 5.14664L3.63062 14.4334C3.41935 15.5339 3.87289 16.0839 4.99166 16.0839H8.71188L9.66815 11.1048H6.56344L7.14355 8.08385H13.437L11.2238 19.6083H4.42658Z" fill="#D9E2ED"/>
<path d="M15.0675 24.3002L15.669 21.1679H19.5571C20.4332 21.1679 20.9755 20.6268 21.1831 19.5454L21.4195 18.3147H18.1192C15.0792 18.3147 13.8583 16.7578 14.4564 13.6433L16.0198 5.50342H19.3481L17.7584 13.7833C17.5722 14.7531 17.9266 15.2378 18.8218 15.2378H22.0105L23.88 5.50342H27.2084L24.5389 19.4056C23.912 22.6688 22.1534 24.3002 19.2633 24.3002H15.0675Z" fill="#D9E2ED"/>
<path d="M43.015 19.8532L44.8307 10.3985C45.0207 9.41058 44.724 8.91589 43.9406 8.91589H41.8985C41.0595 8.91589 40.5448 9.41058 40.3553 10.3985L38.5395 19.8532H35.2669L37.0826 10.3985C37.2726 9.41058 36.9759 8.91589 36.1924 8.91589H34.2346C33.3578 8.91589 32.8231 9.41987 32.6298 10.4269L30.8195 19.8532H27.5189L30.2748 5.50342H33.4636L33.1625 7.06987C33.6162 6.45468 34.0828 6.04009 34.5624 5.82517C35.0416 5.61088 35.6731 5.50342 36.4561 5.50342H37.7712C39.1697 5.50342 40.0131 6.06285 40.3018 7.18193C40.7624 6.52945 41.3185 6.08656 41.9693 5.85326C42.6198 5.62027 43.3372 5.50342 44.1208 5.50342H45.4912C47.859 5.50342 48.7441 7.06079 48.1464 10.1752L46.2876 19.8532H43.015Z" fill="#D9E2ED"/>
<path d="M48.4308 19.6083L49.6179 13.4265C50.2338 10.2193 52.1643 8.6156 55.4091 8.6156H57.5629C58.7187 8.6156 59.4137 8.0097 59.6464 6.79716L59.9204 5.37064C60.0385 4.75513 59.9871 4.29355 59.7665 3.98621C59.5458 3.67846 59.1277 3.52463 58.5125 3.52463H56.5266C55.5196 3.52463 54.9212 4.0189 54.7313 5.00691L54.522 6.0979H51.165L51.3799 4.97882C51.7094 3.26355 52.3712 2.00454 53.3642 1.20293C54.3571 0.401118 55.6461 0 57.2312 0H59.1894C60.9607 0 62.1847 0.447589 62.8615 1.34245C63.5381 2.23753 63.7045 3.58029 63.3609 5.37064L63.0867 6.79716C62.4603 10.0604 60.5335 11.6922 57.3077 11.6922H55.1258C53.9695 11.6922 53.2804 12.2703 53.0584 13.4265L52.548 16.0839H61.1076L60.4306 19.6083H48.4308Z" fill="#A7CE4A"/>
<path d="M72.9527 8.91589H69.568C68.6732 8.91589 68.1304 9.41058 67.9409 10.3985L67.291 13.7833C67.1048 14.7531 67.4593 15.2378 68.3541 15.2378H71.7388L72.9527 8.91589ZM64.4321 24.3002L65.0335 21.1679H69.2853C70.1614 21.1679 70.7038 20.6268 70.9114 19.5454L71.1478 18.3147H67.6512C64.6119 18.3147 63.391 16.7578 63.9891 13.6433L64.6336 10.2866C65.2461 7.09817 67.0717 5.50342 70.1117 5.50342H76.9366L74.2671 19.4056C73.6403 22.6688 71.8817 24.3002 68.9916 24.3002H64.4321Z" fill="#D9E2ED"/>
<path d="M86.4985 10.3708C86.6848 9.40149 86.3677 8.91589 85.5473 8.91589H82.9179C82.1158 8.91589 81.6295 9.3638 81.4573 10.259L80.5444 15.0142C80.4546 15.4805 80.479 15.8392 80.6172 16.0909C80.755 16.3426 81.0384 16.4684 81.4676 16.4684H84.097C84.9174 16.4684 85.4134 16.0212 85.5853 15.126L86.4985 10.3708ZM80.9853 19.8532C79.3072 19.8532 78.1797 19.4613 77.6026 18.6783C77.0258 17.8949 76.9004 16.6553 77.2264 14.9581L78.102 10.3985C78.435 8.66422 79.0475 7.41523 79.9407 6.65027C80.8331 5.88595 82.1001 5.50342 83.7409 5.50342H86.0626C87.7407 5.50342 88.8696 5.89096 89.4481 6.66427C90.0266 7.43831 90.1509 8.68322 89.822 10.3985L88.9468 14.9581C88.6315 16.5993 88.0414 17.8252 87.1778 18.6363C86.3126 19.4476 85.1154 19.8532 83.5867 19.8532H80.9853Z" fill="#D9E2ED"/>
</svg>
